<svg width="100" height="100" viewBox="0 0 100 100" fill="none" xmlns="http://www.w3.org/2000/svg">
  <rect width="100" height="100" rx="20" fill="#8B2635"/>
  <path d="M31 39C31 32.3726 36.3726 27 43 27H57C63.6274 27 69 32.3726 69 39V61C69 67.6274 63.6274 73 57 73H43C36.3726 73 31 67.6274 31 61V39Z" stroke="#D4AF37" stroke-width="4"/>
  <path d="M40 35C40 32.2386 42.2386 30 45 30H55C57.7614 30 60 32.2386 60 35V65C60 67.7614 57.7614 70 55 70H45C42.2386 70 40 67.7614 40 65V35Z" fill="#7A9E7E"/>
  <rect x="25" y="44" width="50" height="12" rx="6" fill="#D4AF37"/>
</svg>